<svg width="380" height="363" viewBox="0 0 380 363" fill="none" xmlns="http://www.w3.org/2000/svg">
<g filter="url(#filter0_d_161_12)">
<path d="M349.796 86.4696C401.824 170.124 372.457 278.89 284.204 329.405C195.951 379.92 82.2313 353.055 30.204 269.4C-21.8234 185.746 7.54332 76.9797 95.7963 26.4648C184.049 -24.0501 297.769 2.81493 349.796 86.4696Z" fill="url(#paint0_linear_161_12)"/>
<path fill-rule="evenodd" clip-rule="evenodd" d="M184.637 279.198C177.66 283.009 170.363 286.995 162.75 291.173L198.767 299.753C205.041 301.248 208.913 307.418 207.355 313.437C205.84 319.291 199.744 322.813 193.643 321.36L128.238 305.778C122.677 304.453 119.253 298.973 120.656 293.642L137.239 230.671C138.779 224.823 144.89 221.325 150.985 222.802C157.253 224.321 161.1 230.507 159.517 236.52L150.005 272.643C158.261 268.11 166.096 263.831 173.535 259.768C191.461 249.978 207.09 241.442 220.783 233.633C245.337 219.63 262.223 208.748 273.35 198.465C284.122 188.51 288.892 179.675 290.108 169.56C291.153 160.874 289.697 150.354 285.381 136.248C283.564 130.307 286.663 123.999 292.661 122.023C298.726 120.026 305.437 123.217 307.299 129.218C312.235 145.121 314.607 159.148 313.049 172.099C311.071 188.543 302.965 201.857 289.372 214.42C276.136 226.653 257.171 238.655 232.583 252.677C218.804 260.535 202.805 269.274 184.637 279.198Z" fill="white"/>
<path fill-rule="evenodd" clip-rule="evenodd" d="M196.565 76.4862C203.542 72.6753 210.839 68.6895 218.453 64.5118L182.435 55.9313C176.162 54.4368 172.289 48.2662 173.848 42.2471C175.363 36.3933 181.458 32.8715 187.559 34.3249L252.964 49.9062C258.526 51.2311 261.95 56.7119 260.546 62.0425L243.964 125.014C242.424 130.862 236.313 134.36 230.217 132.882C223.949 131.363 220.102 125.177 221.685 119.164L231.198 83.0416C222.941 87.5744 215.106 91.8535 207.667 95.9164C189.741 105.707 174.113 114.242 160.42 122.051C135.866 136.054 118.979 146.936 107.852 157.22C97.0809 167.175 92.3108 176.01 91.0944 186.124C90.0497 194.811 91.5053 205.331 95.8211 219.437C97.6387 225.378 94.5392 231.686 88.5417 233.661C82.4766 235.659 75.7658 232.467 73.9033 226.466C68.9676 210.564 66.5957 196.537 68.1534 183.585C70.131 167.142 78.2376 153.827 91.8302 141.265C105.067 129.032 124.031 117.03 148.619 103.008C162.398 95.1495 178.397 86.4106 196.565 76.4862Z" fill="white"/>
</g>
<defs>
<filter id="filter0_d_161_12" x="0.473633" y="0.964844" width="379.053" height="361.941" filterUnits="userSpaceOnUse" color-interpolation-filters="sRGB">
<feFlood flood-opacity="0" result="BackgroundImageFix"/>
<feColorMatrix in="SourceAlpha" type="matrix" values="0 0 0 0 0 0 0 0 0 0 0 0 0 0 0 0 0 0 127 0" result="hardAlpha"/>
<feOffset dy="4"/>
<feGaussianBlur stdDeviation="2"/>
<feComposite in2="hardAlpha" operator="out"/>
<feColorMatrix type="matrix" values="0 0 0 0 0 0 0 0 0 0 0 0 0 0 0 0 0 0 0.25 0"/>
<feBlend mode="normal" in2="BackgroundImageFix" result="effect1_dropShadow_161_12"/>
<feBlend mode="normal" in="SourceGraphic" in2="effect1_dropShadow_161_12" result="shape"/>
</filter>
<linearGradient id="paint0_linear_161_12" x1="190" y1="0.964844" x2="190" y2="354.905" gradientUnits="userSpaceOnUse">
<stop stop-color="#0045F6"/>
</linearGradient>
</defs>
</svg>
