<svg width="632" height="404" viewBox="0 0 632 404" fill="none" xmlns="http://www.w3.org/2000/svg">
<path d="M615.441 319V63H580.931L325.237 116H303.276L61.7005 63H16.209V319C132.561 318.954 197.794 334.031 314.257 386C424.265 338.011 489.452 321.159 615.441 319Z" fill="#C0F0FF"/>
<path d="M48.1055 253.5V0.5C176.249 51.5891 252.556 27.5 305.368 116V323C252.033 265.5 189.062 242.849 48.1055 253.5Z" fill="#4AB9FF"/>
<path d="M584.068 253V0C455.925 51.0891 379.618 27 326.806 115.5V322.5C380.141 265 443.112 242.349 584.068 253Z" fill="#4AB9FF"/>
<path d="M25.6209 310.5L23.0071 60.4981C-1.56956 53.4998 -0.740351 63.9785 0.52278 103.998V307.498C-0.831888 329.296 4.28957 334.577 23.0071 331.998C71.9425 330.762 100.394 334.429 144.841 342.498C189.287 350.567 273.607 408.185 315.826 400.998V350C307.243 349.338 302.491 350.417 294.387 353.5C244.189 277.502 121.888 265.822 41.8311 282.998V294.498C154.571 303.026 205.444 317.396 268.243 364.498C152.775 308.605 88.6744 308.342 25.6209 310.5Z" fill="#009DFF"/>
<path d="M606.03 311.016L608.644 61.0138C633.221 54.0155 632.392 64.4941 631.129 104.514V308.014C632.483 329.811 627.362 335.093 608.644 332.514C559.709 331.278 531.257 334.944 486.811 343.014C442.365 351.083 358.044 408.7 315.826 401.514V350.516C324.408 349.854 329.16 350.932 337.265 354.016C387.463 278.017 509.764 266.338 589.82 283.514V295.014C477.08 303.542 426.207 317.911 363.409 365.014C478.876 309.121 542.977 308.858 606.03 311.016Z" fill="#009DFF"/>
<path d="M269.5 392.5C301 405.5 326.262 407.686 365.5 392.5H269.5Z" fill="#009DFF"/>
<path d="M284 359C304.672 345.491 321.25 343.219 347 359H284Z" fill="#009DFF"/>
</svg>
