<svg xmlns="http://www.w3.org/2000/svg" fill="none" viewBox="0 0 402.21 125.66">
<ellipse cx="47.6206" cy="46.1343" rx="47.6206" ry="46.1343" transform="matrix(0.867884 -0.496766 0.528123 0.849168 0 47.3125)" fill="url(#paint0_linear_58_12)"/>
<g filter="url(#filter0_d_58_12)">
<path fill-rule="evenodd" clip-rule="evenodd" d="M64.3066 89.0208C62.5022 90.0064 60.615 91.0373 58.6457 92.1178L67.9613 94.337C69.5837 94.7235 70.5853 96.3195 70.1823 97.8763C69.7904 99.3902 68.2139 100.301 66.636 99.9252L54.7745 97.0995C50.5641 96.0964 47.972 91.9473 49.0346 87.9119L52.0477 76.4698C52.446 74.9573 54.0266 74.0526 55.6031 74.4347C57.2242 74.8276 58.2192 76.4275 57.8097 77.9826L55.3495 87.3253C57.4849 86.1529 59.5113 85.0462 61.4353 83.9954C66.0716 81.4633 70.1138 79.2557 73.6553 77.236C80.0058 73.6143 84.3733 70.7998 87.2512 68.1401C90.037 65.5654 91.2707 63.2803 91.5853 60.6643C91.8555 58.4177 91.479 55.6968 90.3628 52.0485C89.8927 50.5119 90.6944 48.8804 92.2455 48.3695C93.8142 47.8529 95.5499 48.6783 96.0316 50.2304C97.3081 54.3434 97.9216 57.9712 97.5187 61.3211C97.0072 65.5739 94.9106 69.0176 91.395 72.2666C87.9715 75.4306 83.0666 78.5347 76.7073 82.1613C73.1435 84.1937 69.0057 86.454 64.3066 89.0208Z" fill="white"/>
</g>
<g filter="url(#filter1_d_58_12)">
<path fill-rule="evenodd" clip-rule="evenodd" d="M67.3916 36.5925C69.1961 35.6069 71.0833 34.576 73.0525 33.4955L63.737 31.2762C62.1145 30.8897 61.1129 29.2938 61.5159 27.737C61.9078 26.223 63.4843 25.3121 65.0622 25.688L76.9237 28.5138C81.1342 29.5168 83.7263 33.6659 82.6636 37.7014L79.6505 49.1435C79.2522 50.656 77.6717 51.5607 76.0951 51.1786C74.474 50.7857 73.479 49.1858 73.8885 47.6306L76.3488 38.288C74.2134 39.4603 72.187 40.567 70.2629 41.6179C65.6266 44.15 61.5844 46.3576 58.0429 48.3773C51.6924 51.9989 47.3249 54.8135 44.4471 57.4732C41.6612 60.0478 40.4275 62.333 40.1129 64.9489C39.8427 67.1956 40.2192 69.9165 41.3354 73.5648C41.8055 75.1013 41.0039 76.7328 39.4527 77.2437C37.884 77.7604 36.1484 76.935 35.6667 75.3828C34.3901 71.2699 33.7767 67.642 34.1795 64.2922C34.691 60.0394 36.7877 56.5957 40.3032 53.3466C43.7267 50.1827 48.6316 47.0786 54.991 43.4519C58.5547 41.4195 62.6926 39.1593 67.3916 36.5925Z" fill="white"/>
</g>
<path d="M142.154 81.42C139.234 81.42 136.594 80.92 134.234 79.92C131.914 78.92 130.074 77.48 128.714 75.6C127.354 73.72 126.654 71.5 126.614 68.94H135.614C135.734 70.66 136.334 72.02 137.414 73.02C138.534 74.02 140.054 74.52 141.974 74.52C143.934 74.52 145.474 74.06 146.594 73.14C147.714 72.18 148.274 70.94 148.274 69.42C148.274 68.18 147.894 67.16 147.134 66.36C146.374 65.56 145.414 64.94 144.254 64.5C143.134 64.02 141.574 63.5 139.574 62.94C136.854 62.14 134.634 61.36 132.914 60.6C131.234 59.8 129.774 58.62 128.534 57.06C127.334 55.46 126.734 53.34 126.734 50.7C126.734 48.22 127.354 46.06 128.594 44.22C129.834 42.38 131.574 40.98 133.814 40.02C136.054 39.02 138.614 38.52 141.494 38.52C145.814 38.52 149.314 39.58 151.994 41.7C154.714 43.78 156.214 46.7 156.494 50.46H147.254C147.174 49.02 146.554 47.84 145.394 46.92C144.274 45.96 142.774 45.48 140.894 45.48C139.254 45.48 137.934 45.9 136.934 46.74C135.974 47.58 135.494 48.8 135.494 50.4C135.494 51.52 135.854 52.46 136.574 53.22C137.334 53.94 138.254 54.54 139.334 55.02C140.454 55.46 142.014 55.98 144.014 56.58C146.734 57.38 148.954 58.18 150.674 58.98C152.394 59.78 153.874 60.98 155.114 62.58C156.354 64.18 156.974 66.28 156.974 68.88C156.974 71.12 156.394 73.2 155.234 75.12C154.074 77.04 152.374 78.58 150.134 79.74C147.894 80.86 145.234 81.42 142.154 81.42ZM182.737 81L171.457 66.84V81H163.057V36.6H171.457V61.86L182.617 47.76H193.537L178.897 64.44L193.657 81H182.737ZM201.156 43.8C199.676 43.8 198.436 43.34 197.436 42.42C196.476 41.46 195.996 40.28 195.996 38.88C195.996 37.48 196.476 36.32 197.436 35.4C198.436 34.44 199.676 33.96 201.156 33.96C202.636 33.96 203.856 34.44 204.816 35.4C205.816 36.32 206.316 37.48 206.316 38.88C206.316 40.28 205.816 41.46 204.816 42.42C203.856 43.34 202.636 43.8 201.156 43.8ZM205.296 47.76V81H196.896V47.76H205.296ZM220.795 36.6V81H212.395V36.6H220.795ZM236.294 36.6V81H227.894V36.6H236.294ZM257.854 81.42C254.934 81.42 252.294 80.92 249.934 79.92C247.614 78.92 245.774 77.48 244.414 75.6C243.054 73.72 242.354 71.5 242.314 68.94H251.314C251.434 70.66 252.034 72.02 253.114 73.02C254.234 74.02 255.754 74.52 257.674 74.52C259.634 74.52 261.174 74.06 262.294 73.14C263.414 72.18 263.974 70.94 263.974 69.42C263.974 68.18 263.594 67.16 262.834 66.36C262.074 65.56 261.114 64.94 259.954 64.5C258.834 64.02 257.274 63.5 255.274 62.94C252.554 62.14 250.334 61.36 248.614 60.6C246.934 59.8 245.474 58.62 244.234 57.06C243.034 55.46 242.434 53.34 242.434 50.7C242.434 48.22 243.054 46.06 244.294 44.22C245.534 42.38 247.274 40.98 249.514 40.02C251.754 39.02 254.314 38.52 257.194 38.52C261.514 38.52 265.014 39.58 267.694 41.7C270.414 43.78 271.914 46.7 272.194 50.46H262.954C262.874 49.02 262.254 47.84 261.094 46.92C259.974 45.96 258.474 45.48 256.594 45.48C254.954 45.48 253.634 45.9 252.634 46.74C251.674 47.58 251.194 48.8 251.194 50.4C251.194 51.52 251.554 52.46 252.274 53.22C253.034 53.94 253.954 54.54 255.034 55.02C256.154 55.46 257.714 55.98 259.714 56.58C262.434 57.38 264.654 58.18 266.374 58.98C268.094 59.78 269.574 60.98 270.814 62.58C272.054 64.18 272.674 66.28 272.674 68.88C272.674 71.12 272.094 73.2 270.934 75.12C269.774 77.04 268.074 78.58 265.834 79.74C263.594 80.86 260.934 81.42 257.854 81.42ZM324.836 47.76L315.116 81H306.056L299.996 57.78L293.936 81H284.816L275.036 47.76H283.556L289.436 73.08L295.796 47.76H304.676L310.916 73.02L316.796 47.76H324.836ZM326.021 64.26C326.021 60.9 326.681 57.92 328.001 55.32C329.361 52.72 331.181 50.72 333.461 49.32C335.781 47.92 338.361 47.22 341.201 47.22C343.681 47.22 345.841 47.72 347.681 48.72C349.561 49.72 351.061 50.98 352.181 52.5V47.76H360.641V81H352.181V76.14C351.101 77.7 349.601 79 347.681 80.04C345.801 81.04 343.621 81.54 341.141 81.54C338.341 81.54 335.781 80.82 333.461 79.38C331.181 77.94 329.361 75.92 328.001 73.32C326.681 70.68 326.021 67.66 326.021 64.26ZM352.181 64.38C352.181 62.34 351.781 60.6 350.981 59.16C350.181 57.68 349.101 56.56 347.741 55.8C346.381 55 344.921 54.6 343.361 54.6C341.801 54.6 340.361 54.98 339.041 55.74C337.721 56.5 336.641 57.62 335.801 59.1C335.001 60.54 334.601 62.26 334.601 64.26C334.601 66.26 335.001 68.02 335.801 69.54C336.641 71.02 337.721 72.16 339.041 72.96C340.401 73.76 341.841 74.16 343.361 74.16C344.921 74.16 346.381 73.78 347.741 73.02C349.101 72.22 350.181 71.1 350.981 69.66C351.781 68.18 352.181 66.42 352.181 64.38ZM376.045 52.56C377.125 51.04 378.605 49.78 380.485 48.78C382.405 47.74 384.585 47.22 387.025 47.22C389.865 47.22 392.425 47.92 394.705 49.32C397.025 50.72 398.845 52.72 400.165 55.32C401.525 57.88 402.205 60.86 402.205 64.26C402.205 67.66 401.525 70.68 400.165 73.32C398.845 75.92 397.025 77.94 394.705 79.38C392.425 80.82 389.865 81.54 387.025 81.54C384.585 81.54 382.425 81.04 380.545 80.04C378.705 79.04 377.205 77.78 376.045 76.26V96.84H367.645V47.76H376.045V52.56ZM393.625 64.26C393.625 62.26 393.205 60.54 392.365 59.1C391.565 57.62 390.485 56.5 389.125 55.74C387.805 54.98 386.365 54.6 384.805 54.6C383.285 54.6 381.845 55 380.485 55.8C379.165 56.56 378.085 57.68 377.245 59.16C376.445 60.64 376.045 62.38 376.045 64.38C376.045 66.38 376.445 68.12 377.245 69.6C378.085 71.08 379.165 72.22 380.485 73.02C381.845 73.78 383.285 74.16 384.805 74.16C386.365 74.16 387.805 73.76 389.125 72.96C390.485 72.16 391.565 71.02 392.365 69.54C393.205 68.06 393.625 66.3 393.625 64.26Z" fill="#0045F6"/>
<defs>
<filter id="filter0_d_58_12" x="44.7959" y="48.2148" width="56.8457" height="59.7969" filterUnits="userSpaceOnUse" color-interpolation-filters="sRGB">
<feFlood flood-opacity="0" result="BackgroundImageFix"/>
<feColorMatrix in="SourceAlpha" type="matrix" values="0 0 0 0 0 0 0 0 0 0 0 0 0 0 0 0 0 0 127 0" result="hardAlpha"/>
<feOffset dy="4"/>
<feGaussianBlur stdDeviation="2"/>
<feComposite in2="hardAlpha" operator="out"/>
<feColorMatrix type="matrix" values="0 0 0 0 0 0 0 0 0 0 0 0 0 0 0 0 0 0 0.25 0"/>
<feBlend mode="normal" in2="BackgroundImageFix" result="effect1_dropShadow_58_12"/>
<feBlend mode="normal" in="SourceGraphic" in2="effect1_dropShadow_58_12" result="shape"/>
</filter>
<filter id="filter1_d_58_12" x="30.0566" y="25.6016" width="56.8457" height="59.7969" filterUnits="userSpaceOnUse" color-interpolation-filters="sRGB">
<feFlood flood-opacity="0" result="BackgroundImageFix"/>
<feColorMatrix in="SourceAlpha" type="matrix" values="0 0 0 0 0 0 0 0 0 0 0 0 0 0 0 0 0 0 127 0" result="hardAlpha"/>
<feOffset dy="4"/>
<feGaussianBlur stdDeviation="2"/>
<feComposite in2="hardAlpha" operator="out"/>
<feColorMatrix type="matrix" values="0 0 0 0 0 0 0 0 0 0 0 0 0 0 0 0 0 0 0.25 0"/>
<feBlend mode="normal" in2="BackgroundImageFix" result="effect1_dropShadow_58_12"/>
<feBlend mode="normal" in="SourceGraphic" in2="effect1_dropShadow_58_12" result="shape"/>
</filter>
<linearGradient id="paint0_linear_58_12" x1="47.6206" y1="0" x2="47.6206" y2="92.2685" gradientUnits="userSpaceOnUse">
<stop stop-color="#0045F6"/>
</linearGradient>
</defs>
</svg>