<svg width="386" height="92" viewBox="0 0 386 92" fill="none" xmlns="http://www.w3.org/2000/svg">
<path d="M73.0585 85.0093C95.884 71.9442 103.479 43.8134 90.0231 22.1772C76.5669 0.54101 47.1548 -6.4073 24.3293 6.65771C1.50389 19.7227 -6.09141 47.8536 7.36478 69.4898C20.821 91.126 50.2331 98.0743 73.0585 85.0093Z" fill="url(#paint0_linear_185_10)"/>
<path fill-rule="evenodd" clip-rule="evenodd" d="M47.3068 72.0223C45.5024 73.0079 43.6152 74.0388 41.6459 75.1193L50.9615 77.3385C52.5839 77.725 53.5855 79.321 53.1825 80.8778C52.7906 82.3917 51.2141 83.3025 49.6362 82.9267L37.7747 80.101C33.5643 79.0979 30.9722 74.9488 32.0348 70.9134L35.0479 59.4713C35.4462 57.9588 37.0268 57.0541 38.6033 57.4362C40.2244 57.8291 41.2194 59.429 40.8099 60.9841L38.3497 70.3268C40.4851 69.1544 42.5115 68.0477 44.4355 66.9969C49.0718 64.4648 53.114 62.2572 56.6555 60.2375C63.006 56.6158 67.3735 53.8013 70.2514 51.1416C73.0372 48.5669 74.2709 46.2818 74.5855 43.6658C74.8557 41.4192 74.4792 38.6983 73.363 35.05C72.8929 33.5134 73.6946 31.8819 75.2457 31.371C76.8144 30.8544 78.5501 31.6798 79.0318 33.2319C80.3083 37.3449 80.9218 40.9727 80.5189 44.3226C80.0074 48.5754 77.9108 52.0191 74.3952 55.2681C70.9717 58.4321 66.0668 61.5362 59.7075 65.1628C56.1437 67.1952 52.0059 69.4555 47.3068 72.0223Z" fill="white"/>
<path fill-rule="evenodd" clip-rule="evenodd" d="M50.3918 19.594C52.1963 18.6084 54.0835 17.5775 56.0527 16.497L46.7372 14.2777C45.1147 13.8912 44.1131 12.2953 44.5161 10.7385C44.908 9.22451 46.4845 8.31361 48.0624 8.68951L59.9239 11.5153C64.1344 12.5183 66.7265 16.6674 65.6638 20.7029L62.6507 32.145C62.2524 33.6575 60.6719 34.5622 59.0953 34.1801C57.4742 33.7872 56.4792 32.1873 56.8887 30.6321L59.349 21.2895C57.2136 22.4618 55.1872 23.5685 53.2631 24.6194C48.6268 27.1515 44.5846 29.3591 41.0431 31.3788C34.6926 35.0004 30.3251 37.815 27.4473 40.4747C24.6614 43.0493 23.4277 45.3345 23.1131 47.9504C22.8429 50.1971 23.2194 52.918 24.3356 56.5663C24.8057 58.1028 24.0041 59.7343 22.4529 60.2452C20.8842 60.7619 19.1486 59.9365 18.6669 58.3843C17.3903 54.2714 16.7769 50.6435 17.1797 47.2937C17.6912 43.0409 19.7879 39.5972 23.3034 36.3481C26.7269 33.1842 31.6318 30.0801 37.9912 26.4534C41.5549 24.421 45.6928 22.1608 50.3918 19.594Z" fill="white"/>
<path d="M125.154 64.4215C122.234 64.4215 119.594 63.9215 117.234 62.9215C114.914 61.9215 113.074 60.4815 111.714 58.6015C110.354 56.7215 109.654 54.5015 109.614 51.9415H118.614C118.734 53.6615 119.334 55.0215 120.414 56.0215C121.534 57.0215 123.054 57.5215 124.974 57.5215C126.934 57.5215 128.474 57.0615 129.594 56.1415C130.714 55.1815 131.274 53.9415 131.274 52.4215C131.274 51.1815 130.894 50.1615 130.134 49.3615C129.374 48.5615 128.414 47.9415 127.254 47.5015C126.134 47.0215 124.574 46.5015 122.574 45.9415C119.854 45.1415 117.634 44.3615 115.914 43.6015C114.234 42.8015 112.774 41.6215 111.534 40.0615C110.334 38.4615 109.734 36.3415 109.734 33.7015C109.734 31.2215 110.354 29.0615 111.594 27.2215C112.834 25.3815 114.574 23.9815 116.814 23.0215C119.054 22.0215 121.614 21.5215 124.494 21.5215C128.814 21.5215 132.314 22.5815 134.994 24.7015C137.714 26.7815 139.214 29.7015 139.494 33.4615H130.254C130.174 32.0215 129.554 30.8415 128.394 29.9215C127.274 28.9615 125.774 28.4815 123.894 28.4815C122.254 28.4815 120.934 28.9015 119.934 29.7415C118.974 30.5815 118.494 31.8015 118.494 33.4015C118.494 34.5215 118.854 35.4615 119.574 36.2215C120.334 36.9415 121.254 37.5415 122.334 38.0215C123.454 38.4615 125.014 38.9815 127.014 39.5815C129.734 40.3815 131.954 41.1815 133.674 41.9815C135.394 42.7815 136.874 43.9815 138.114 45.5815C139.354 47.1815 139.974 49.2815 139.974 51.8815C139.974 54.1215 139.394 56.2015 138.234 58.1215C137.074 60.0415 135.374 61.5815 133.134 62.7415C130.894 63.8615 128.234 64.4215 125.154 64.4215ZM165.737 64.0015L154.457 49.8415V64.0015H146.057V19.6015H154.457V44.8615L165.617 30.7615H176.537L161.897 47.4415L176.657 64.0015H165.737ZM184.156 26.8015C182.676 26.8015 181.436 26.3415 180.436 25.4215C179.476 24.4615 178.996 23.2815 178.996 21.8815C178.996 20.4815 179.476 19.3215 180.436 18.4015C181.436 17.4415 182.676 16.9615 184.156 16.9615C185.636 16.9615 186.856 17.4415 187.816 18.4015C188.816 19.3215 189.316 20.4815 189.316 21.8815C189.316 23.2815 188.816 24.4615 187.816 25.4215C186.856 26.3415 185.636 26.8015 184.156 26.8015ZM188.296 30.7615V64.0015H179.896V30.7615H188.296ZM203.795 19.6015V64.0015H195.395V19.6015H203.795ZM219.294 19.6015V64.0015H210.894V19.6015H219.294ZM240.854 64.4215C237.934 64.4215 235.294 63.9215 232.934 62.9215C230.614 61.9215 228.774 60.4815 227.414 58.6015C226.054 56.7215 225.354 54.5015 225.314 51.9415H234.314C234.434 53.6615 235.034 55.0215 236.114 56.0215C237.234 57.0215 238.754 57.5215 240.674 57.5215C242.634 57.5215 244.174 57.0615 245.294 56.1415C246.414 55.1815 246.974 53.9415 246.974 52.4215C246.974 51.1815 246.594 50.1615 245.834 49.3615C245.074 48.5615 244.114 47.9415 242.954 47.5015C241.834 47.0215 240.274 46.5015 238.274 45.9415C235.554 45.1415 233.334 44.3615 231.614 43.6015C229.934 42.8015 228.474 41.6215 227.234 40.0615C226.034 38.4615 225.434 36.3415 225.434 33.7015C225.434 31.2215 226.054 29.0615 227.294 27.2215C228.534 25.3815 230.274 23.9815 232.514 23.0215C234.754 22.0215 237.314 21.5215 240.194 21.5215C244.514 21.5215 248.014 22.5815 250.694 24.7015C253.414 26.7815 254.914 29.7015 255.194 33.4615H245.954C245.874 32.0215 245.254 30.8415 244.094 29.9215C242.974 28.9615 241.474 28.4815 239.594 28.4815C237.954 28.4815 236.634 28.9015 235.634 29.7415C234.674 30.5815 234.194 31.8015 234.194 33.4015C234.194 34.5215 234.554 35.4615 235.274 36.2215C236.034 36.9415 236.954 37.5415 238.034 38.0215C239.154 38.4615 240.714 38.9815 242.714 39.5815C245.434 40.3815 247.654 41.1815 249.374 41.9815C251.094 42.7815 252.574 43.9815 253.814 45.5815C255.054 47.1815 255.674 49.2815 255.674 51.8815C255.674 54.1215 255.094 56.2015 253.934 58.1215C252.774 60.0415 251.074 61.5815 248.834 62.7415C246.594 63.8615 243.934 64.4215 240.854 64.4215ZM307.836 30.7615L298.116 64.0015H289.056L282.996 40.7815L276.936 64.0015H267.816L258.036 30.7615H266.556L272.436 56.0815L278.796 30.7615H287.676L293.916 56.0215L299.796 30.7615H307.836ZM309.021 47.2615C309.021 43.9015 309.681 40.9215 311.001 38.3215C312.361 35.7215 314.181 33.7215 316.461 32.3215C318.781 30.9215 321.361 30.2215 324.201 30.2215C326.681 30.2215 328.841 30.7215 330.681 31.7215C332.561 32.7215 334.061 33.9815 335.181 35.5015V30.7615H343.641V64.0015H335.181V59.1415C334.101 60.7015 332.601 62.0015 330.681 63.0415C328.801 64.0415 326.621 64.5415 324.141 64.5415C321.341 64.5415 318.781 63.8215 316.461 62.3815C314.181 60.9415 312.361 58.9215 311.001 56.3215C309.681 53.6815 309.021 50.6615 309.021 47.2615ZM335.181 47.3815C335.181 45.3415 334.781 43.6015 333.981 42.1615C333.181 40.6815 332.101 39.5615 330.741 38.8015C329.381 38.0015 327.921 37.6015 326.361 37.6015C324.801 37.6015 323.361 37.9815 322.041 38.7415C320.721 39.5015 319.641 40.6215 318.801 42.1015C318.001 43.5415 317.601 45.2615 317.601 47.2615C317.601 49.2615 318.001 51.0215 318.801 52.5415C319.641 54.0215 320.721 55.1615 322.041 55.9615C323.401 56.7615 324.841 57.1615 326.361 57.1615C327.921 57.1615 329.381 56.7815 330.741 56.0215C332.101 55.2215 333.181 54.1015 333.981 52.6615C334.781 51.1815 335.181 49.4215 335.181 47.3815ZM359.045 35.5615C360.125 34.0415 361.605 32.7815 363.485 31.7815C365.405 30.7415 367.585 30.2215 370.025 30.2215C372.865 30.2215 375.425 30.9215 377.705 32.3215C380.025 33.7215 381.845 35.7215 383.165 38.3215C384.525 40.8815 385.205 43.8615 385.205 47.2615C385.205 50.6615 384.525 53.6815 383.165 56.3215C381.845 58.9215 380.025 60.9415 377.705 62.3815C375.425 63.8215 372.865 64.5415 370.025 64.5415C367.585 64.5415 365.425 64.0415 363.545 63.0415C361.705 62.0415 360.205 60.7815 359.045 59.2615V79.8415H350.645V30.7615H359.045V35.5615ZM376.625 47.2615C376.625 45.2615 376.205 43.5415 375.365 42.1015C374.565 40.6215 373.485 39.5015 372.125 38.7415C370.805 37.9815 369.365 37.6015 367.805 37.6015C366.285 37.6015 364.845 38.0015 363.485 38.8015C362.165 39.5615 361.085 40.6815 360.245 42.1615C359.445 43.6415 359.045 45.3815 359.045 47.3815C359.045 49.3815 359.445 51.1215 360.245 52.6015C361.085 54.0815 362.165 55.2215 363.485 56.0215C364.845 56.7815 366.285 57.1615 367.805 57.1615C369.365 57.1615 370.805 56.7615 372.125 55.9615C373.485 55.1615 374.565 54.0215 375.365 52.5415C376.205 51.0615 376.625 49.3015 376.625 47.2615Z" fill="#0045F6"/>
<defs>
<linearGradient id="paint0_linear_185_10" x1="192.958" y1="0.0625" x2="192.958" y2="91.6044" gradientUnits="userSpaceOnUse">
<stop stop-color="#0045F6"/>
</linearGradient>
</defs>
</svg>
