<svg width="385" height="92" viewBox="0 0 385 92" fill="none" xmlns="http://www.w3.org/2000/svg">
<path d="M73.0585 85.0093C95.884 71.9442 103.479 43.8134 90.0231 22.1772C76.5669 0.54101 47.1548 -6.4073 24.3293 6.65771C1.50389 19.7227 -6.09141 47.8536 7.36478 69.4898C20.821 91.126 50.2331 98.0743 73.0585 85.0093Z" fill="url(#paint0_linear_186_23)"/>
<path fill-rule="evenodd" clip-rule="evenodd" d="M47.3068 72.0223C45.5024 73.0079 43.6152 74.0388 41.6459 75.1193L50.9615 77.3385C52.5839 77.725 53.5855 79.321 53.1825 80.8778C52.7906 82.3917 51.2141 83.3025 49.6362 82.9267L37.7747 80.101C33.5643 79.0979 30.9722 74.9488 32.0348 70.9134L35.0479 59.4713C35.4462 57.9588 37.0268 57.0541 38.6033 57.4362C40.2244 57.8291 41.2194 59.429 40.8099 60.9841L38.3497 70.3268C40.4851 69.1544 42.5115 68.0477 44.4355 66.9969C49.0718 64.4648 53.114 62.2572 56.6555 60.2375C63.006 56.6158 67.3735 53.8013 70.2514 51.1416C73.0372 48.5669 74.2709 46.2818 74.5855 43.6658C74.8557 41.4192 74.4792 38.6983 73.363 35.05C72.8929 33.5134 73.6946 31.8819 75.2457 31.371C76.8144 30.8544 78.55 31.6798 79.0318 33.2319C80.3083 37.3449 80.9218 40.9727 80.5189 44.3226C80.0074 48.5754 77.9107 52.0191 74.3952 55.2681C70.9717 58.4321 66.0668 61.5362 59.7075 65.1628C56.1437 67.1952 52.0059 69.4555 47.3068 72.0223Z" fill="white"/>
<path fill-rule="evenodd" clip-rule="evenodd" d="M50.3918 19.594C52.1963 18.6084 54.0835 17.5775 56.0527 16.497L46.7372 14.2777C45.1147 13.8912 44.1131 12.2953 44.5161 10.7385C44.908 9.22451 46.4845 8.31361 48.0624 8.68951L59.9239 11.5153C64.1344 12.5183 66.7265 16.6674 65.6638 20.7029L62.6507 32.145C62.2524 33.6575 60.6719 34.5622 59.0953 34.1801C57.4742 33.7872 56.4792 32.1873 56.8887 30.6321L59.349 21.2895C57.2136 22.4618 55.1872 23.5685 53.2631 24.6194C48.6268 27.1515 44.5846 29.3591 41.0431 31.3788C34.6926 35.0004 30.3251 37.815 27.4473 40.4747C24.6614 43.0493 23.4277 45.3345 23.1131 47.9504C22.8429 50.1971 23.2194 52.918 24.3356 56.5663C24.8057 58.1028 24.0041 59.7343 22.4529 60.2452C20.8842 60.7619 19.1486 59.9365 18.6669 58.3843C17.3903 54.2714 16.7769 50.6435 17.1797 47.2937C17.6912 43.0409 19.7879 39.5972 23.3034 36.3481C26.7269 33.1842 31.6318 30.0801 37.9912 26.4534C41.5549 24.421 45.6928 22.1608 50.3918 19.594Z" fill="white"/>
<path d="M124.793 64.4215C121.873 64.4215 119.233 63.9215 116.873 62.9215C114.553 61.9215 112.713 60.4815 111.353 58.6015C109.993 56.7215 109.293 54.5015 109.253 51.9415H118.253C118.373 53.6615 118.973 55.0215 120.053 56.0215C121.173 57.0215 122.693 57.5215 124.613 57.5215C126.573 57.5215 128.113 57.0615 129.233 56.1415C130.353 55.1815 130.913 53.9415 130.913 52.4215C130.913 51.1815 130.533 50.1615 129.773 49.3615C129.013 48.5615 128.053 47.9415 126.893 47.5015C125.773 47.0215 124.213 46.5015 122.213 45.9415C119.493 45.1415 117.273 44.3615 115.553 43.6015C113.873 42.8015 112.413 41.6215 111.173 40.0615C109.973 38.4615 109.373 36.3415 109.373 33.7015C109.373 31.2215 109.993 29.0615 111.233 27.2215C112.473 25.3815 114.213 23.9815 116.453 23.0215C118.693 22.0215 121.253 21.5215 124.133 21.5215C128.453 21.5215 131.953 22.5815 134.633 24.7015C137.353 26.7815 138.853 29.7015 139.133 33.4615H129.893C129.813 32.0215 129.193 30.8415 128.033 29.9215C126.913 28.9615 125.413 28.4815 123.533 28.4815C121.893 28.4815 120.573 28.9015 119.573 29.7415C118.613 30.5815 118.133 31.8015 118.133 33.4015C118.133 34.5215 118.493 35.4615 119.213 36.2215C119.973 36.9415 120.893 37.5415 121.973 38.0215C123.093 38.4615 124.653 38.9815 126.653 39.5815C129.373 40.3815 131.593 41.1815 133.313 41.9815C135.033 42.7815 136.513 43.9815 137.753 45.5815C138.993 47.1815 139.613 49.2815 139.613 51.8815C139.613 54.1215 139.033 56.2015 137.873 58.1215C136.713 60.0415 135.013 61.5815 132.773 62.7415C130.533 63.8615 127.873 64.4215 124.793 64.4215ZM165.375 64.0015L154.095 49.8415V64.0015H145.695V19.6015H154.095V44.8615L165.255 30.7615H176.175L161.535 47.4415L176.295 64.0015H165.375ZM183.794 26.8015C182.314 26.8015 181.074 26.3415 180.074 25.4215C179.114 24.4615 178.634 23.2815 178.634 21.8815C178.634 20.4815 179.114 19.3215 180.074 18.4015C181.074 17.4415 182.314 16.9615 183.794 16.9615C185.274 16.9615 186.494 17.4415 187.454 18.4015C188.454 19.3215 188.954 20.4815 188.954 21.8815C188.954 23.2815 188.454 24.4615 187.454 25.4215C186.494 26.3415 185.274 26.8015 183.794 26.8015ZM187.934 30.7615V64.0015H179.534V30.7615H187.934ZM203.433 19.6015V64.0015H195.033V19.6015H203.433ZM218.933 19.6015V64.0015H210.533V19.6015H218.933ZM240.492 64.4215C237.572 64.4215 234.932 63.9215 232.572 62.9215C230.252 61.9215 228.412 60.4815 227.052 58.6015C225.692 56.7215 224.992 54.5015 224.952 51.9415H233.952C234.072 53.6615 234.672 55.0215 235.752 56.0215C236.872 57.0215 238.392 57.5215 240.312 57.5215C242.272 57.5215 243.812 57.0615 244.932 56.1415C246.052 55.1815 246.612 53.9415 246.612 52.4215C246.612 51.1815 246.232 50.1615 245.472 49.3615C244.712 48.5615 243.752 47.9415 242.592 47.5015C241.472 47.0215 239.912 46.5015 237.912 45.9415C235.192 45.1415 232.972 44.3615 231.252 43.6015C229.572 42.8015 228.112 41.6215 226.872 40.0615C225.672 38.4615 225.072 36.3415 225.072 33.7015C225.072 31.2215 225.692 29.0615 226.932 27.2215C228.172 25.3815 229.912 23.9815 232.152 23.0215C234.392 22.0215 236.952 21.5215 239.832 21.5215C244.152 21.5215 247.652 22.5815 250.332 24.7015C253.052 26.7815 254.552 29.7015 254.832 33.4615H245.592C245.512 32.0215 244.892 30.8415 243.732 29.9215C242.612 28.9615 241.112 28.4815 239.232 28.4815C237.592 28.4815 236.272 28.9015 235.272 29.7415C234.312 30.5815 233.832 31.8015 233.832 33.4015C233.832 34.5215 234.192 35.4615 234.912 36.2215C235.672 36.9415 236.592 37.5415 237.672 38.0215C238.792 38.4615 240.352 38.9815 242.352 39.5815C245.072 40.3815 247.292 41.1815 249.012 41.9815C250.732 42.7815 252.212 43.9815 253.452 45.5815C254.692 47.1815 255.312 49.2815 255.312 51.8815C255.312 54.1215 254.732 56.2015 253.572 58.1215C252.412 60.0415 250.712 61.5815 248.472 62.7415C246.232 63.8615 243.572 64.4215 240.492 64.4215ZM307.474 30.7615L297.754 64.0015H288.694L282.634 40.7815L276.574 64.0015H267.454L257.674 30.7615H266.194L272.074 56.0815L278.434 30.7615H287.314L293.554 56.0215L299.434 30.7615H307.474ZM308.659 47.2615C308.659 43.9015 309.319 40.9215 310.639 38.3215C311.999 35.7215 313.819 33.7215 316.099 32.3215C318.419 30.9215 320.999 30.2215 323.839 30.2215C326.319 30.2215 328.479 30.7215 330.319 31.7215C332.199 32.7215 333.699 33.9815 334.819 35.5015V30.7615H343.279V64.0015H334.819V59.1415C333.739 60.7015 332.239 62.0015 330.319 63.0415C328.439 64.0415 326.259 64.5415 323.779 64.5415C320.979 64.5415 318.419 63.8215 316.099 62.3815C313.819 60.9415 311.999 58.9215 310.639 56.3215C309.319 53.6815 308.659 50.6615 308.659 47.2615ZM334.819 47.3815C334.819 45.3415 334.419 43.6015 333.619 42.1615C332.819 40.6815 331.739 39.5615 330.379 38.8015C329.019 38.0015 327.559 37.6015 325.999 37.6015C324.439 37.6015 322.999 37.9815 321.679 38.7415C320.359 39.5015 319.279 40.6215 318.439 42.1015C317.639 43.5415 317.239 45.2615 317.239 47.2615C317.239 49.2615 317.639 51.0215 318.439 52.5415C319.279 54.0215 320.359 55.1615 321.679 55.9615C323.039 56.7615 324.479 57.1615 325.999 57.1615C327.559 57.1615 329.019 56.7815 330.379 56.0215C331.739 55.2215 332.819 54.1015 333.619 52.6615C334.419 51.1815 334.819 49.4215 334.819 47.3815ZM358.683 35.5615C359.763 34.0415 361.243 32.7815 363.123 31.7815C365.043 30.7415 367.223 30.2215 369.663 30.2215C372.503 30.2215 375.063 30.9215 377.343 32.3215C379.663 33.7215 381.483 35.7215 382.803 38.3215C384.163 40.8815 384.843 43.8615 384.843 47.2615C384.843 50.6615 384.163 53.6815 382.803 56.3215C381.483 58.9215 379.663 60.9415 377.343 62.3815C375.063 63.8215 372.503 64.5415 369.663 64.5415C367.223 64.5415 365.063 64.0415 363.183 63.0415C361.343 62.0415 359.843 60.7815 358.683 59.2615V79.8415H350.283V30.7615H358.683V35.5615ZM376.263 47.2615C376.263 45.2615 375.843 43.5415 375.003 42.1015C374.203 40.6215 373.123 39.5015 371.763 38.7415C370.443 37.9815 369.003 37.6015 367.443 37.6015C365.923 37.6015 364.483 38.0015 363.123 38.8015C361.803 39.5615 360.723 40.6815 359.883 42.1615C359.083 43.6415 358.683 45.3815 358.683 47.3815C358.683 49.3815 359.083 51.1215 359.883 52.6015C360.723 54.0815 361.803 55.2215 363.123 56.0215C364.483 56.7815 365.923 57.1615 367.443 57.1615C369.003 57.1615 370.443 56.7615 371.763 55.9615C373.123 55.1615 374.203 54.0215 375.003 52.5415C375.843 51.0615 376.263 49.3015 376.263 47.2615Z" fill="white"/>
<defs>
<linearGradient id="paint0_linear_186_23" x1="192.777" y1="0.0625" x2="192.777" y2="91.6044" gradientUnits="userSpaceOnUse">
<stop stop-color="#0045F6"/>
</linearGradient>
</defs>
</svg>
