<svg xmlns="http://www.w3.org/2000/svg" fill="none" viewBox="0 0 401.84 125.66">
<ellipse cx="47.6206" cy="46.1343" rx="47.6206" ry="46.1343" transform="matrix(0.867884 -0.496766 0.528123 0.849168 0 47.3125)" fill="url(#paint0_linear_143_34)"/>
<g filter="url(#filter0_d_143_34)">
<path fill-rule="evenodd" clip-rule="evenodd" d="M64.3066 89.0208C62.5022 90.0064 60.615 91.0373 58.6457 92.1178L67.9613 94.337C69.5837 94.7235 70.5853 96.3195 70.1823 97.8763V97.8763C69.7904 99.3902 68.2139 100.301 66.636 99.9252L54.7745 97.0995C50.5641 96.0964 47.972 91.9473 49.0346 87.9119L52.0477 76.4698C52.446 74.9573 54.0266 74.0526 55.6031 74.4347V74.4347C57.2242 74.8276 58.2192 76.4275 57.8097 77.9826L55.3495 87.3253C57.4849 86.1529 59.5113 85.0462 61.4353 83.9954C66.0716 81.4633 70.1138 79.2557 73.6553 77.236C80.0058 73.6143 84.3733 70.7998 87.2512 68.1401C90.037 65.5654 91.2707 63.2803 91.5853 60.6643C91.8555 58.4177 91.479 55.6968 90.3628 52.0485C89.8927 50.5119 90.6944 48.8804 92.2455 48.3695V48.3695C93.8142 47.8529 95.5498 48.6783 96.0316 50.2304C97.3081 54.3434 97.9216 57.9712 97.5187 61.3211C97.0072 65.5739 94.9105 69.0176 91.395 72.2666C87.9715 75.4306 83.0666 78.5347 76.7073 82.1613C73.1435 84.1937 69.0057 86.454 64.3066 89.0208Z" fill="white"/>
</g>
<g filter="url(#filter1_d_143_34)">
<path fill-rule="evenodd" clip-rule="evenodd" d="M67.3916 36.5925C69.1961 35.6069 71.0833 34.576 73.0525 33.4955L63.737 31.2762C62.1145 30.8897 61.1129 29.2938 61.5159 27.737V27.737C61.9078 26.223 63.4843 25.3121 65.0622 25.688L76.9237 28.5138C81.1342 29.5168 83.7263 33.6659 82.6636 37.7014L79.6505 49.1435C79.2522 50.656 77.6717 51.5607 76.0951 51.1786V51.1786C74.474 50.7857 73.479 49.1858 73.8885 47.6306L76.3488 38.288C74.2134 39.4603 72.187 40.567 70.2629 41.6179C65.6266 44.15 61.5844 46.3576 58.0429 48.3773C51.6924 51.9989 47.3249 54.8135 44.4471 57.4732C41.6612 60.0478 40.4275 62.333 40.1129 64.9489C39.8427 67.1956 40.2192 69.9165 41.3354 73.5648C41.8055 75.1013 41.0039 76.7328 39.4527 77.2437V77.2437C37.884 77.7604 36.1484 76.935 35.6667 75.3828C34.3901 71.2699 33.7767 67.642 34.1795 64.2922C34.691 60.0394 36.7877 56.5957 40.3032 53.3466C43.7267 50.1827 48.6316 47.0786 54.991 43.4519C58.5547 41.4195 62.6926 39.1593 67.3916 36.5925Z" fill="white"/>
</g>
<path d="M141.793 81.42C138.873 81.42 136.233 80.92 133.873 79.92C131.553 78.92 129.713 77.48 128.353 75.6C126.993 73.72 126.293 71.5 126.253 68.94H135.253C135.373 70.66 135.973 72.02 137.053 73.02C138.173 74.02 139.693 74.52 141.613 74.52C143.573 74.52 145.113 74.06 146.233 73.14C147.353 72.18 147.913 70.94 147.913 69.42C147.913 68.18 147.533 67.16 146.773 66.36C146.013 65.56 145.053 64.94 143.893 64.5C142.773 64.02 141.213 63.5 139.213 62.94C136.493 62.14 134.273 61.36 132.553 60.6C130.873 59.8 129.413 58.62 128.173 57.06C126.973 55.46 126.373 53.34 126.373 50.7C126.373 48.22 126.993 46.06 128.233 44.22C129.473 42.38 131.213 40.98 133.453 40.02C135.693 39.02 138.253 38.52 141.133 38.52C145.453 38.52 148.953 39.58 151.633 41.7C154.353 43.78 155.853 46.7 156.133 50.46H146.893C146.813 49.02 146.193 47.84 145.033 46.92C143.913 45.96 142.413 45.48 140.533 45.48C138.893 45.48 137.573 45.9 136.573 46.74C135.613 47.58 135.133 48.8 135.133 50.4C135.133 51.52 135.493 52.46 136.213 53.22C136.973 53.94 137.893 54.54 138.973 55.02C140.093 55.46 141.653 55.98 143.653 56.58C146.373 57.38 148.593 58.18 150.313 58.98C152.033 59.78 153.513 60.98 154.753 62.58C155.993 64.18 156.613 66.28 156.613 68.88C156.613 71.12 156.033 73.2 154.873 75.12C153.713 77.04 152.013 78.58 149.773 79.74C147.533 80.86 144.873 81.42 141.793 81.42ZM182.375 81L171.095 66.84V81H162.695V36.6H171.095V61.86L182.255 47.76H193.175L178.535 64.44L193.295 81H182.375ZM200.794 43.8C199.314 43.8 198.074 43.34 197.074 42.42C196.114 41.46 195.634 40.28 195.634 38.88C195.634 37.48 196.114 36.32 197.074 35.4C198.074 34.44 199.314 33.96 200.794 33.96C202.274 33.96 203.494 34.44 204.454 35.4C205.454 36.32 205.954 37.48 205.954 38.88C205.954 40.28 205.454 41.46 204.454 42.42C203.494 43.34 202.274 43.8 200.794 43.8ZM204.934 47.76V81H196.534V47.76H204.934ZM220.433 36.6V81H212.033V36.6H220.433ZM235.933 36.6V81H227.533V36.6H235.933ZM257.492 81.42C254.572 81.42 251.932 80.92 249.572 79.92C247.252 78.92 245.412 77.48 244.052 75.6C242.692 73.72 241.992 71.5 241.952 68.94H250.952C251.072 70.66 251.672 72.02 252.752 73.02C253.872 74.02 255.392 74.52 257.312 74.52C259.272 74.52 260.812 74.06 261.932 73.14C263.052 72.18 263.612 70.94 263.612 69.42C263.612 68.18 263.232 67.16 262.472 66.36C261.712 65.56 260.752 64.94 259.592 64.5C258.472 64.02 256.912 63.5 254.912 62.94C252.192 62.14 249.972 61.36 248.252 60.6C246.572 59.8 245.112 58.62 243.872 57.06C242.672 55.46 242.072 53.34 242.072 50.7C242.072 48.22 242.692 46.06 243.932 44.22C245.172 42.38 246.912 40.98 249.152 40.02C251.392 39.02 253.952 38.52 256.832 38.52C261.152 38.52 264.652 39.58 267.332 41.7C270.052 43.78 271.552 46.7 271.832 50.46H262.592C262.512 49.02 261.892 47.84 260.732 46.92C259.612 45.96 258.112 45.48 256.232 45.48C254.592 45.48 253.272 45.9 252.272 46.74C251.312 47.58 250.832 48.8 250.832 50.4C250.832 51.52 251.192 52.46 251.912 53.22C252.672 53.94 253.592 54.54 254.672 55.02C255.792 55.46 257.352 55.98 259.352 56.58C262.072 57.38 264.292 58.18 266.012 58.98C267.732 59.78 269.212 60.98 270.452 62.58C271.692 64.18 272.312 66.28 272.312 68.88C272.312 71.12 271.732 73.2 270.572 75.12C269.412 77.04 267.712 78.58 265.472 79.74C263.232 80.86 260.572 81.42 257.492 81.42ZM324.474 47.76L314.754 81H305.694L299.634 57.78L293.574 81H284.454L274.674 47.76H283.194L289.074 73.08L295.434 47.76H304.314L310.554 73.02L316.434 47.76H324.474ZM325.659 64.26C325.659 60.9 326.319 57.92 327.639 55.32C328.999 52.72 330.819 50.72 333.099 49.32C335.419 47.92 337.999 47.22 340.839 47.22C343.319 47.22 345.479 47.72 347.319 48.72C349.199 49.72 350.699 50.98 351.819 52.5V47.76H360.279V81H351.819V76.14C350.739 77.7 349.239 79 347.319 80.04C345.439 81.04 343.259 81.54 340.779 81.54C337.979 81.54 335.419 80.82 333.099 79.38C330.819 77.94 328.999 75.92 327.639 73.32C326.319 70.68 325.659 67.66 325.659 64.26ZM351.819 64.38C351.819 62.34 351.419 60.6 350.619 59.16C349.819 57.68 348.739 56.56 347.379 55.8C346.019 55 344.559 54.6 342.999 54.6C341.439 54.6 339.999 54.98 338.679 55.74C337.359 56.5 336.279 57.62 335.439 59.1C334.639 60.54 334.239 62.26 334.239 64.26C334.239 66.26 334.639 68.02 335.439 69.54C336.279 71.02 337.359 72.16 338.679 72.96C340.039 73.76 341.479 74.16 342.999 74.16C344.559 74.16 346.019 73.78 347.379 73.02C348.739 72.22 349.819 71.1 350.619 69.66C351.419 68.18 351.819 66.42 351.819 64.38ZM375.683 52.56C376.763 51.04 378.243 49.78 380.123 48.78C382.043 47.74 384.223 47.22 386.663 47.22C389.503 47.22 392.063 47.92 394.343 49.32C396.663 50.72 398.483 52.72 399.803 55.32C401.163 57.88 401.843 60.86 401.843 64.26C401.843 67.66 401.163 70.68 399.803 73.32C398.483 75.92 396.663 77.94 394.343 79.38C392.063 80.82 389.503 81.54 386.663 81.54C384.223 81.54 382.063 81.04 380.183 80.04C378.343 79.04 376.843 77.78 375.683 76.26V96.84H367.283V47.76H375.683V52.56ZM393.263 64.26C393.263 62.26 392.843 60.54 392.003 59.1C391.203 57.62 390.123 56.5 388.763 55.74C387.443 54.98 386.003 54.6 384.443 54.6C382.923 54.6 381.483 55 380.123 55.8C378.803 56.56 377.723 57.68 376.883 59.16C376.083 60.64 375.683 62.38 375.683 64.38C375.683 66.38 376.083 68.12 376.883 69.6C377.723 71.08 378.803 72.22 380.123 73.02C381.483 73.78 382.923 74.16 384.443 74.16C386.003 74.16 387.443 73.76 388.763 72.96C390.123 72.16 391.203 71.02 392.003 69.54C392.843 68.06 393.263 66.3 393.263 64.26Z" fill="white"/>
<defs>
<filter id="filter0_d_143_34" x="44.7959" y="48.2148" width="56.8457" height="59.7969" filterUnits="userSpaceOnUse" color-interpolation-filters="sRGB">
<feFlood flood-opacity="0" result="BackgroundImageFix"/>
<feColorMatrix in="SourceAlpha" type="matrix" values="0 0 0 0 0 0 0 0 0 0 0 0 0 0 0 0 0 0 127 0" result="hardAlpha"/>
<feOffset dy="4"/>
<feGaussianBlur stdDeviation="2"/>
<feComposite in2="hardAlpha" operator="out"/>
<feColorMatrix type="matrix" values="0 0 0 0 0 0 0 0 0 0 0 0 0 0 0 0 0 0 0.25 0"/>
<feBlend mode="normal" in2="BackgroundImageFix" result="effect1_dropShadow_143_34"/>
<feBlend mode="normal" in="SourceGraphic" in2="effect1_dropShadow_143_34" result="shape"/>
</filter>
<filter id="filter1_d_143_34" x="30.0566" y="25.6016" width="56.8457" height="59.7969" filterUnits="userSpaceOnUse" color-interpolation-filters="sRGB">
<feFlood flood-opacity="0" result="BackgroundImageFix"/>
<feColorMatrix in="SourceAlpha" type="matrix" values="0 0 0 0 0 0 0 0 0 0 0 0 0 0 0 0 0 0 127 0" result="hardAlpha"/>
<feOffset dy="4"/>
<feGaussianBlur stdDeviation="2"/>
<feComposite in2="hardAlpha" operator="out"/>
<feColorMatrix type="matrix" values="0 0 0 0 0 0 0 0 0 0 0 0 0 0 0 0 0 0 0.25 0"/>
<feBlend mode="normal" in2="BackgroundImageFix" result="effect1_dropShadow_143_34"/>
<feBlend mode="normal" in="SourceGraphic" in2="effect1_dropShadow_143_34" result="shape"/>
</filter>
<linearGradient id="paint0_linear_143_34" x1="47.6206" y1="0" x2="47.6206" y2="92.2685" gradientUnits="userSpaceOnUse">
<stop stop-color="#0045F6"/>
</linearGradient>
</defs>
</svg>